<?xml version="1.0" encoding="iso-8859-1"?>
<!-- Generator: Adobe Illustrator 19.0.0, SVG Export Plug-In . SVG Version: 6.00 Build 0)  -->
<svg version="1.1" id="Capa_1" xmlns="http://www.w3.org/2000/svg" xmlns:xlink="http://www.w3.org/1999/xlink" x="0px" y="0px"
	 viewBox="0 0 512.001 512.001" style="enable-background:new 0 0 512.001 512.001;" xml:space="preserve">
<path style="fill:#FF4C4C;" d="M442.932,174.584l-183.046,87.599c-2.457,1.176-5.315,1.176-7.772,0L69.068,174.584
	c-3.126-1.496-5.116-4.654-5.116-8.12V9.002C63.951,4.03,67.982,0,72.954,0h366.093c4.972,0,9.002,4.03,9.002,9.002v157.462
	C448.049,169.93,446.059,173.088,442.932,174.584z"/>
<path style="fill:#EA2828;" d="M439.046,0h-37.551v172.136l-168.772,80.768l19.391,9.28c2.457,1.176,5.315,1.176,7.772,0
	l183.046-87.599c3.126-1.496,5.116-4.654,5.116-8.12V9.002C448.049,4.031,444.018,0,439.046,0z"/>
<path style="fill:#E1EFFB;" d="M324.05,0H187.951v231.477l64.163,30.706c2.457,1.176,5.315,1.176,7.772,0l64.163-30.706L324.05,0
	L324.05,0z"/>
<path style="fill:#C3D8E5;" d="M242.185,257.432l9.929,4.752c2.457,1.176,5.315,1.176,7.772,0l64.163-30.706v-22.279l-91.326,43.705
	L242.185,257.432z"/>
<path style="fill:#FFB125;" d="M258.995,264.094l37.937,76.868c0.487,0.986,1.427,1.669,2.515,1.827l84.829,12.326
	c2.739,0.398,3.833,3.765,1.851,5.697l-61.383,59.833c-0.787,0.767-1.146,1.873-0.961,2.956l14.49,84.486
	c0.468,2.728-2.396,4.809-4.846,3.521l-75.873-39.889c-0.973-0.512-2.135-0.512-3.108,0l-75.873,39.889
	c-2.45,1.288-5.314-0.792-4.846-3.521l14.49-84.486c0.186-1.083-0.173-2.189-0.961-2.956l-61.383-59.833
	c-1.982-1.932-0.888-5.299,1.851-5.697l84.829-12.326c1.088-0.158,2.028-0.841,2.515-1.827l37.937-76.868
	C254.23,261.612,257.77,261.612,258.995,264.094z"/>
<g>
	<path style="fill:#FF901D;" d="M249.085,338.746l48.47,3.061c-0.245-0.249-0.465-0.524-0.624-0.845l-37.937-76.868
		c-1.225-2.482-4.765-2.482-5.99,0l-20.381,41.297L249.085,338.746z"/>
	<path style="fill:#FF901D;" d="M386.126,360.813c1.982-1.932,0.888-5.299-1.851-5.697l-33.99-4.939l-73.551,71.695l11.298,65.872
		l45.396,23.866c2.45,1.288,5.314-0.792,4.846-3.521l-14.491-84.486c-0.186-1.083,0.173-2.189,0.961-2.956L386.126,360.813z"/>
</g>
<g>
</g>
<g>
</g>
<g>
</g>
<g>
</g>
<g>
</g>
<g>
</g>
<g>
</g>
<g>
</g>
<g>
</g>
<g>
</g>
<g>
</g>
<g>
</g>
<g>
</g>
<g>
</g>
<g>
</g>
</svg>
